<?xml version="1.0" encoding="UTF-8"?>
<svg version="1.1" xmlns="http://www.w3.org/2000/svg" width="1266" height="1266">
<path d="M0 0 C16.4311049 10.05986014 25.7247871 40.45097135 32.81497192 57.3760376 C35.07581842 62.76737202 37.36850538 68.14514049 39.66015625 73.5234375 C40.11504929 74.59197968 40.56994232 75.66052185 41.03862 76.76144409 C57.27537963 120.89752998 57.27537963 120.89752998 84 158 C88.12503877 158.19186227 90.62488963 156.80627494 93.75 154.3125 C103.21885573 145.4164295 109.75390318 133.41941433 116.3581543 122.37255859 C121.31944509 114.16338454 125.90778486 106.57557288 135.625 104.0625 C144.22254738 103.32049779 152.13748098 108.09346598 158.71875 113.15234375 C170.61762586 123.19106926 181.38667636 134.66603042 190.62939453 147.17626953 C192.13311193 149.17711901 193.68382621 151.13439265 195.24609375 153.08984375 C203.78102657 163.80303776 211.56197593 174.92642215 219.18603516 186.30126953 C222.01502678 190.51010848 224.88212095 194.69260505 227.75 198.875 C228.82163822 200.44008798 229.89325329 202.00519181 230.96484375 203.5703125 C231.97653038 205.04689701 232.98824771 206.52346048 234 208 C234.67893311 208.9914502 234.67893311 208.9914502 235.37158203 210.00292969 C241.89917556 219.53229856 248.48582821 229.01981747 255.08813477 238.49755859 C258.9957637 244.10963326 262.88576568 249.73297553 266.75 255.375 C274.98093693 267.38108632 283.3839778 279.26700506 292 291 C291.67 291.66 291.34 292.32 291 293 C289.83984375 291.82244141 289.83984375 291.82244141 288.65625 290.62109375 C283.53201388 285.44406447 278.40969704 280.3652793 272.859375 275.640625 C270.10917227 273.21397553 267.57611823 270.58513769 265.00390625 267.97265625 C262.41753849 265.42662171 259.6846472 263.07978443 256.93359375 260.71484375 C254.46879329 258.52888941 252.18151512 256.19462315 249.87524414 253.84399414 C248.06425925 252.0631884 246.19873364 250.39799136 244.2734375 248.7421875 C240.12605426 245.13634763 236.11676371 241.40141599 232.125 237.625 C226.94662532 232.7477214 221.7379089 227.91597932 216.4296875 223.1796875 C213.55606467 220.60174291 210.71557214 217.98922646 207.875 215.375 C202.25669568 210.21477651 196.55019411 205.17698872 190.75 200.22265625 C189.54162052 199.19015817 188.3332885 198.15760454 187.125 197.125 C186.5163208 196.60518555 185.9076416 196.08537109 185.28051758 195.54980469 C181.74337942 192.52081344 178.25590469 189.44835977 174.8125 186.3125 C167.08166274 179.32091622 158.94528708 172.89504561 150.625 166.625 C149.94679199 166.11283936 149.26858398 165.60067871 148.56982422 165.07299805 C142.28343523 159.94016026 142.28343523 159.94016026 134.75 157.9375 C122.56495651 161.38992899 113.22195075 172.95009272 105.25 182.3125 C98.75053511 189.9247765 91.54979291 197.07980386 81.13671875 197.9921875 C73.21160286 198.02116416 67.77300308 195.27410158 62 190 C61.41476562 189.46890625 60.82953125 188.9378125 60.2265625 188.390625 C52.27771708 180.26194145 48.00920739 168.83457661 44 158.375 C37.26650251 141.14303867 25.52651318 121.13080213 8.5625 112.4375 C3.53724523 110.51973493 -1.7289251 109.84538359 -7 111 C-13.22668906 114.02491133 -18.08332679 118.59276708 -23 123.375 C-24.33203297 124.65500043 -25.66536515 125.93365024 -27 127.2109375 C-27.65726074 127.84016113 -28.31452148 128.46938477 -28.99169922 129.11767578 C-31.64680317 131.60623054 -34.38392296 133.99169705 -37.13378906 136.37451172 C-39.75914346 138.6612215 -42.31584432 141.01433839 -44.875 143.375 C-48.4659417 146.68698436 -52.08333756 149.95910866 -55.75 153.1875 C-65.7627529 162.19736004 -75.45203203 171.66638858 -83.77734375 182.26953125 C-86.95749343 186.17625292 -90.38942491 189.83180952 -93.84082031 193.4987793 C-96.00424358 195.80438071 -98.08461173 198.1083681 -100.03125 200.6015625 C-105.86521004 207.70880747 -113.81045997 212.96822645 -122 217 C-122.66 217.33 -123.32 217.66 -124 218 C-125.89061062 218.17500341 -127.7893464 218.26724916 -129.6875 218.3125 C-131.20923828 218.36857422 -131.20923828 218.36857422 -132.76171875 218.42578125 C-139.40400065 217.55242935 -144.32676127 213.09686367 -149.375 209 C-158.4365506 201.84981753 -158.4365506 201.84981753 -169.5 199.875 C-178.26595957 201.55010317 -184.81184661 208.38209401 -190.81640625 214.55859375 C-191.8675486 215.61966087 -191.8675486 215.61966087 -192.93992615 216.7021637 C-195.15477739 218.94018384 -197.35913482 221.18817595 -199.5625 223.4375 C-201.77115488 225.68147014 -203.98204065 227.92317572 -206.19578552 230.16212463 C-207.56490692 231.54793434 -208.93091478 232.93683024 -210.29310608 234.32945251 C-214.13265997 238.22838332 -218.09399147 241.90698492 -222.23887634 245.47962952 C-224.2065181 247.17828619 -226.11319186 248.93091505 -228 250.71875 C-228.66 251.34136719 -229.32 251.96398437 -230 252.60546875 C-230.66 253.23066406 -231.32 253.85585938 -232 254.5 C-236.64206201 258.89726577 -241.33598316 263.20542755 -246.16503906 267.39697266 C-248.60981621 269.53273726 -250.99153982 271.73371605 -253.375 273.9375 C-267.69774119 287 -267.69774119 287 -270 287 C-270.8124482 280.17900628 -268.43705766 277.00876728 -264.3125 271.75 C-263.10708194 270.15016266 -261.90402596 268.54854333 -260.703125 266.9453125 C-259.7759668 265.71796387 -259.7759668 265.71796387 -258.83007812 264.46582031 C-255.95861857 260.596858 -253.26014697 256.61620443 -250.5625 252.625 C-244.37797637 243.52478176 -238.0805228 234.50716447 -231.75732422 225.50292969 C-228.87665958 221.40004363 -226.00043938 217.2940492 -223.125 213.1875 C-222.55273682 212.37031494 -221.98047363 211.55312988 -221.39086914 210.71118164 C-216.91501136 204.31594478 -212.45551743 197.9094196 -208 191.5 C-201.79241866 182.57090867 -195.57718782 173.64738464 -189.32421875 164.75 C-187.09635427 161.57719798 -184.89339285 158.389028 -182.70703125 155.1875 C-182.1769043 154.41841309 -181.64677734 153.64932617 -181.10058594 152.85693359 C-180.11563697 151.42766321 -179.137729 149.99349918 -178.16894531 148.55322266 C-173.87857283 142.36238553 -168.70550775 136.41529734 -161 135 C-153.89262788 135 -149.29702878 137.31000906 -144 142 C-141.34711376 144.83910104 -138.86711297 147.81983276 -136.38305664 150.80639648 C-128.42470017 160.63324456 -128.42470017 160.63324456 -117 165 C-110.39147973 163.34786993 -106.81296551 159.5011599 -103 154 C-101.70826151 151.59116203 -100.47277332 149.1894519 -99.27734375 146.734375 C-98.93175415 146.03389542 -98.58616455 145.33341583 -98.23010254 144.61170959 C-95.14023131 138.33290478 -92.10063045 132.02936739 -89.06567383 125.72387695 C-76.76670574 100.18128281 -64.12422575 74.94614983 -49.5546875 50.60839844 C-48.08146541 48.13667971 -46.62972778 45.65396574 -45.1875 43.1640625 C-16.1118203 -7.00030813 -16.1118203 -7.00030813 0 0 Z " fill="#000000" transform="translate(630,488)"/>
<path d="M0 0 C16.83461213 -0.36643842 33.68937456 1.73203143 49.92578125 6.12109375 C51.15039062 6.4459375 52.375 6.77078125 53.63671875 7.10546875 C71.44868148 12.43746627 87.48170622 22.84336978 103.23144531 32.48046875 C107.11016319 34.84228319 111.01093173 37.16671378 114.90991211 39.49487305 C123.72153596 44.75855974 132.49948049 50.07216565 141.23046875 55.46826172 C146.45546696 58.6969305 151.68970113 61.91043945 156.92578125 65.12109375 C157.66425293 65.57661621 158.40272461 66.03213867 159.16357422 66.50146484 C168.03408616 71.94397468 177.05552944 75.90273457 186.92578125 79.12109375 C187.6002832 79.34394043 188.27478516 79.56678711 188.96972656 79.79638672 C251.16010759 99.88207931 319.79847126 86.43659089 376.90625 57.77734375 C386.12691891 53.05749565 395.02139482 47.81418426 403.79882812 42.31933594 C406.10756532 41.01868371 408.44830427 40.05421172 410.92578125 39.12109375 C381.06016747 75.44413754 334.71872152 95.11018985 288.55883789 99.65429688 C219.08959607 105.14422344 158.04109401 77.50458437 98.77148438 44.69384766 C32.8503062 8.26074627 -30.53514611 8.30302215 -102.89648438 28.89648438 C-133.30042049 37.71646868 -162.7073493 49.05545013 -191.07421875 63.12109375 C-191.40421875 62.46109375 -191.73421875 61.80109375 -192.07421875 61.12109375 C-181.09455853 55.41457921 -170.09710444 49.743698 -159.07421875 44.12109375 C-158.11854004 43.63302246 -157.16286133 43.14495117 -156.17822266 42.64208984 C-108.18090666 18.36109469 -53.74871346 2.1171666 0 0 Z " fill="#000000" transform="translate(487.07421875,785.87890625)"/>
</svg>
